<?xml version="1.0" standalone="no"?>
<!DOCTYPE svg PUBLIC "-//W3C//DTD SVG 20010904//EN"
 "http://www.w3.org/TR/2001/REC-SVG-20010904/DTD/svg10.dtd">
<svg version="1.0" xmlns="http://www.w3.org/2000/svg"
 width="304.000000pt" height="304.000000pt" viewBox="0 0 304.000000 304.000000"
 preserveAspectRatio="xMidYMid meet">
<metadata>
Created by potrace 1.11, written by Peter Selinger 2001-2013
</metadata>
<g transform="translate(0.000000,304.000000) scale(0.100000,-0.100000)"
fill="#000000" stroke="none">
<path d="M695 2515 c-117 -35 -238 -132 -285 -230 l-25 -50 0 -750 0 -750 30
-58 c52 -105 205 -219 310 -232 106 -14 177 114 108 195 -14 17 -38 36 -52 41
-60 23 -131 74 -143 103 -19 46 -20 1359 -1 1398 17 35 64 70 135 101 64 29
88 62 88 126 0 28 -8 48 -25 70 -38 44 -79 55 -140 36z"/>
<path d="M2264 2515 c-40 -17 -64 -46 -71 -88 -11 -72 14 -112 92 -147 72 -33
115 -68 129 -104 10 -23 12 -193 10 -696 -1 -366 -2 -670 -3 -677 -3 -28 -60
-78 -126 -110 -81 -38 -105 -69 -105 -132 0 -33 7 -49 33 -78 30 -32 40 -36
83 -37 91 0 254 102 313 197 53 86 52 69 49 859 l-3 733 -24 50 c-36 75 -126
159 -216 201 -85 41 -119 47 -161 29z"/>
<path d="M922 2069 l-160 -160 1 -114 1 -114 160 -160 161 -159 345 0 c190 0
352 -1 362 -1 15 -1 178 -156 178 -171 0 -3 -37 -43 -83 -87 l-83 -81 -307 1
-307 0 -84 84 c-72 72 -84 88 -81 113 2 16 -1 30 -8 32 -7 2 -66 4 -132 4
l-120 -1 -1 -90 -1 -90 157 -158 157 -157 419 0 419 0 159 159 159 159 0 116
-1 117 -158 157 -159 158 -360 -1 -360 -1 -82 80 c-46 44 -83 84 -83 90 0 7
37 48 83 93 l82 81 305 0 305 0 83 -81 c69 -69 82 -87 82 -114 0 -18 3 -34 8
-34 4 -1 62 -2 130 -3 l122 -2 1 36 c1 19 1 60 0 90 l-1 54 -157 158 -158 158
-416 0 -417 0 -160 -161z"/>
</g>
</svg>
